Coordinates
version=1
nRows=22
nColumns=24
inDegrees=yes

Units are S.I. units (second, meters, Newtons, ...)
Angles are in degrees.

endheader
time	pelvis_tilt	pelvis_list	pelvis_rotation	pelvis_tx	pelvis_ty	pelvis_tz	hip_flexion_r	hip_adduction_r	hip_rotation_r	knee_angle_r	ankle_angle_r	subtalar_angle_r	mtp_angle_r	hip_flexion_l	hip_adduction_l	hip_rotation_l	knee_angle_l	ankle_angle_l	subtalar_angle_l	mtp_angle_l	lumbar_extension	lumbar_bending	lumbar_rotation
      2.76500000	    -10.16187627	      1.24335368	     -6.98972648	     -1.96627252	     -0.04071691	      0.50037091	     -6.03178444	      2.21644008	     15.86156990	    -15.90619824	      7.40763974	      0.84507010	      6.52224367	     36.47679854	     -1.48452205	     -0.77237554	    -11.33780583	     -3.87498725	      5.61966343	      8.98099131	      6.79424602	     -1.22458573	     15.26171811
      2.77000000	    -10.23986747	      1.55232973	     -7.00006015	     -1.95767383	     -0.04179641	      0.50014381	     -6.17182074	      1.82002111	     15.61562745	    -16.39367420	      7.24998808	      1.39477837	      6.75749561	     36.61580207	     -1.08706015	     -0.54623059	    -12.03835173	     -4.16867542	      5.25232724	      8.92159876	      7.04596609	     -1.59646052	     15.32189088
      2.77500000	    -10.34069746	      1.86263463	     -6.97850706	     -1.94899339	     -0.04285913	      0.49981281	     -6.26824752	      1.41922939	     15.31266011	    -16.91545404	      7.04110586	      1.99796450	      7.01365887	     36.78671409	     -0.65970658	     -0.31487330	    -12.82005597	     -4.59264844	      4.77625464	      8.81419549	      7.32604493	     -1.96407604	     15.36559843
      2.78000000	    -10.46330329	      2.17074899	     -6.92684687	     -1.94025518	     -0.04389444	      0.49938801	     -6.31690010	      1.01864615	     14.95257140	    -17.47825470	      6.76762920	      2.64933705	      7.30704796	     36.98771977	     -0.20936248	     -0.08688084	    -13.66368168	     -5.14773935	      4.22367972	      8.68091639	      7.62924709	     -2.32970885	     15.38050259
      2.78500000	    -10.60918046	      2.48124046	     -6.84104668	     -1.93145167	     -0.04488868	      0.49884516	     -6.31697923	      0.61005682	     14.54043522	    -18.07790570	      6.41579970	      3.34904324	      7.66162641	     37.21923842	      0.27069635	      0.14925817	    -14.55270059	     -5.81466938	      3.63290607	      8.55057172	      7.95671003	     -2.69544479	     15.36256540
      2.79000000	    -10.77626447	      2.79258697	     -6.71966795	     -1.92262476	     -0.04583738	      0.49822205	     -6.26320786	      0.19843914	     14.07133162	    -18.72355673	      5.98507520	      4.09380723	      8.10263980	     37.48437346	      0.77559938	      0.39826037	    -15.47956251	     -6.56250793	      3.03912087	      8.43658133	      8.30082418	     -3.06932717	     15.32092671
      2.79500000	    -10.96412350	      3.10681312	     -6.56536078	     -1.91379481	     -0.04671069	      0.49749464	     -6.14172801	     -0.22146620	     13.54257320	    -19.43622871	      5.46262085	      4.89558663	      8.66002538	     37.77323976	      1.30784474	      0.68644928	    -16.41533974	     -7.35535321	      2.47130799	      8.33116923	      8.65623997	     -3.44647752	     15.24790053
      2.80000000	    -11.17392966	      3.44077758	     -6.38315755	     -1.90492291	     -0.04748771	      0.49671136	     -5.94970762	     -0.66616648	     12.97261645	    -20.21701973	      4.81815625	      5.73755234	      9.32299987	     38.07259742	      1.87635841	      1.01728881	    -17.33254359	     -8.11478269	      1.98121100	      8.22624190	      9.03524457	     -3.84954585	     15.11799183
      2.80500000	    -11.34032946	      3.76054800	     -6.15112448	     -1.89605895	     -0.04808857	      0.49576953	     -5.80185119	     -1.11548654	     12.38030463	    -20.92421865	      3.80174047	      6.35809885	     10.85210639	     38.32467725	      2.49263150	      1.42424280	    -18.24001779	     -8.93288385	      1.32170614	      8.10996340	      9.35059882	     -4.24516975	     15.00502204
      2.81000000	    -11.56354797	      4.04169026	     -5.92166538	     -1.88732547	     -0.04868326	      0.49479258	     -5.46775005	     -1.52748301	     11.69267564	    -21.88973225	      3.00129759	      7.42986928	     11.69265857	     38.65306126	      3.05664197	      1.83793915	    -19.18813518	     -9.46174563	      1.00626533	      7.94459209	      9.69675239	     -4.59449527	     14.89415983
      2.81500000	    -11.72111751	      4.37968523	     -5.66151617	     -1.87845142	     -0.04904990	      0.49379575	     -5.20788290	     -2.01637182	     11.03369612	    -22.72871547	      1.64538813	      8.05888931	     13.88146460	     38.85879502	      3.71565217	      2.27991987	    -20.06054057	     -9.89996483	      0.60878651	      7.58689540	      9.98967829	     -5.02238703	     14.72599685
      2.82000000	    -11.94341396	      4.68769074	     -5.39876996	     -1.86962509	     -0.04939169	      0.49273880	     -4.77539975	     -2.46931432	     10.35899936	    -23.78398266	      0.41379196	      8.92437062	     15.22294014	     39.10889998	      4.35697009	      2.78450085	    -20.89818515	    -10.26537596	      0.11746725	      7.19999688	     10.33937905	     -5.40674844	     14.59011222
      2.82500000	    -12.10840853	      4.93273151	     -5.14257762	     -1.86101104	     -0.04961213	      0.49161379	     -4.30373413	     -2.87627560	      9.67003374	    -24.97210319	     -0.85454676	      9.93256693	     16.59433813	     39.28697468	      4.94949915	      3.29040357	    -21.72302218	    -10.48287246	     -0.33902201	      6.82466082	     10.57866620	     -5.72318444	     14.45056311
      2.83000000	    -12.23642028	      5.24864006	     -4.88563473	     -1.85214242	     -0.04968794	      0.49061741	     -3.86690353	     -3.36085768	      9.02962475	    -26.07186370	     -2.51595938	     10.56590795	     18.73962200	     39.35051303	      5.59981273	      3.69231661	    -22.46339064	    -10.44881983	     -0.71497093	      6.26688062	     10.82531842	     -6.13185032	     14.31967074
      2.83500000	    -12.33771244	      5.49916921	     -4.64724504	     -1.84349648	     -0.04970771	      0.48962677	     -3.34702770	     -3.77694382	      8.42463294	    -27.34217813	     -4.08942289	     11.32279357	     20.42777072	     39.36758195	      6.17750120	      4.06892404	    -23.17917885	    -10.28972150	     -1.07302423	      5.77004183	     10.99903787	     -6.46837806	     14.19936756
      2.84000000	    -12.42517152	      5.69112810	     -4.43342918	     -1.83507937	     -0.04968777	      0.48859608	     -2.73490028	     -4.13058919	      7.89082589	    -28.76440460	     -5.55904689	     12.16087396	     21.63068941	     39.34689524	      6.69424765	      4.41806349	    -23.85258666	    -10.09867046	     -1.56520903	      5.29484775	     11.11604554	     -6.72794324	     14.07720240
      2.84500000	    -12.47668847	      5.96444200	     -4.23086056	     -1.82650807	     -0.04958157	      0.48775371	     -2.13775313	     -4.55803418	      7.41909180	    -30.13567083	     -7.20166049	     12.63054895	     23.26069849	     39.21696357	      7.25855971	      4.67115781	    -24.44535489	     -9.62809463	     -1.84863042	      4.59825009	     11.23095157	     -7.09184681	     14.00167037
      2.85000000	    -12.53580654	      6.18052243	     -4.03287548	     -1.81827736	     -0.04952810	      0.48684876	     -1.40702232	     -4.91978378	      6.98830907	    -31.72339882	     -8.47942667	     13.29711442	     23.98535557	     39.09274610	      7.76408544	      4.89861623	    -24.99399724	     -9.25442261	     -2.26029267	      4.22382316	     11.29370457	     -7.38370583	     13.89076583
      2.85500000	    -12.59147915	      6.44849188	     -3.85052030	     -1.81007163	     -0.04945049	      0.48602164	     -0.62812034	     -5.32354128	      6.62798927	    -33.33103660	     -9.68293257	     13.71723500	     24.76065458	     38.91672565	      8.30049633	      5.07964452	    -25.47173597	     -8.76233608	     -2.62181752	      3.67139621	     11.36036344	     -7.72502836	     13.81534727
      2.86000000	    -12.63080914	      6.72967475	     -3.68125880	     -1.80198398	     -0.04934561	      0.48525892	      0.19314987	     -5.72497128	      6.34099337	    -34.99390735	    -10.69007657	     13.98927051	     25.30518497	     38.69221401	      8.82819292	      5.20117266	    -25.88753100	     -8.22074217	     -2.93075213	      3.17155696	     11.39720182	     -8.08182218	     13.73497968
      2.86500000	    -12.66899932	      7.02637430	     -3.51637722	     -1.79401518	     -0.04921494	      0.48451961	      1.07049377	     -6.13158320	      6.10539376	    -36.70790721	    -11.47122259	     14.14743758	     25.62652805	     38.43622429	      9.35631948	      5.27316701	    -26.23220949	     -7.70255033	     -3.24241068	      2.76966874	     11.41942769	     -8.44952087	     13.63525440
      2.87000000	    -12.70123599	      7.33586135	     -3.35346058	     -1.78621870	     -0.04907185	      0.48380137	      1.99794272	     -6.54032075	      5.90928633	    -38.46637594	    -12.00438266	     14.16031294	     25.84904143	     38.15275669	      9.88840271	      5.34088078	    -26.52785359	     -7.17334380	     -3.51293706	      2.36959098	     11.41304225	     -8.82789291	     13.53921522
